<?xml version="1.0" encoding="utf-8"?>
<!-- Svg Vector Icons : http://www.onlinewebfonts.com/icon -->
<!DOCTYPE svg PUBLIC "-//W3C//DTD SVG 1.1//EN" "http://www.w3.org/Graphics/SVG/1.1/DTD/svg11.dtd">
<svg version="1.1" xmlns="http://www.w3.org/2000/svg" xmlns:xlink="http://www.w3.org/1999/xlink" x="0px" y="0px" viewBox="0 0 256 256" enable-background="new 0 0 256 256" xml:space="preserve">
<metadata> Svg Vector Icons : http://www.onlinewebfonts.com/icon </metadata>
<g><g><path fill="#000000" d="M234.1,232.1l-20.4-20.4c-1.9-1.9-4.9-1.9-6.8,0l-0.6-0.6c8.7-9.2,14.1-21.6,14.1-35.2c0-28.2-23-51.2-51.2-51.2s-51.2,23-51.2,51.2c0,28.3,23,51.2,51.2,51.2c12.9,0,24.6-4.8,33.6-12.7l0.7,0.7c-1.9,1.9-1.9,4.9,0,6.8l20.4,20.4c1.9,1.9,4.9,1.9,6.8,0l3.4-3.4C236,237,236,233.9,234.1,232.1z M169.2,217.2c-22.9,0-41.4-18.6-41.4-41.4c0-22.9,18.6-41.4,41.4-41.4c22.9,0,41.4,18.6,41.4,41.4C210.6,198.7,192,217.2,169.2,217.2z"/><path fill="#000000" d="M158.2,109.7"/><path fill="#000000" d="M64.4,89.7h97.7v9.8H64.4V89.7L64.4,89.7z"/><path fill="#000000" d="M64.4,133.6h48.9v9.8H64.4V133.6z"/><path fill="#000000" d="M64.4,172.7h39.1v9.8H64.4V172.7z"/><path fill="#000000" d="M35.1,221.6V45.7h17.3v3.4c0,6.7,5.5,12.2,12.2,12.2h97.3c6.7,0,12.2-5.5,12.2-12.2v-3.4h17.3v63.5h14.7V31h-32v-8.8c0-6.7-5.5-12.2-12.2-12.2H64.6c-6.7,0-12.2,5.5-12.2,12.2V31h-32v195.4c0,10.8,8.7,19.6,19.6,19.6h83.1v-14.7H44.9C39.5,231.3,35.1,227,35.1,221.6z M67.1,24.7h92.4v22H67.1V24.7z"/></g></g>
</svg>